<mxfile host="app.diagrams.net" modified="2024-02-18T12:05:23.690Z" agent="Mozilla/5.0 (Windows NT 10.0; Win64; x64; rv:122.0) Gecko/20100101 Firefox/122.0" etag="B8Zs5DKM7I4DmKqnNujS" version="23.1.5" type="device">
  <diagram id="C5RBs43oDa-KdzZeNtuy" name="Page-1">
    <mxGraphModel dx="1050" dy="1727" grid="1" gridSize="10" guides="1" tooltips="1" connect="1" arrows="1" fold="1" page="1" pageScale="1" pageWidth="827" pageHeight="1169" math="0" shadow="0">
      <root>
        <mxCell id="WIyWlLk6GJQsqaUBKTNV-0" />
        <mxCell id="WIyWlLk6GJQsqaUBKTNV-1" parent="WIyWlLk6GJQsqaUBKTNV-0" />
        <mxCell id="GMhAEA2OD-C0DRkbzbxI-0" value="Environment" style="swimlane;fontStyle=1;align=center;verticalAlign=top;childLayout=stackLayout;horizontal=1;startSize=26;horizontalStack=0;resizeParent=1;resizeParentMax=0;resizeLast=0;collapsible=1;marginBottom=0;whiteSpace=wrap;html=1;" vertex="1" parent="WIyWlLk6GJQsqaUBKTNV-1">
          <mxGeometry x="494" y="40" width="240" height="130" as="geometry" />
        </mxCell>
        <mxCell id="GMhAEA2OD-C0DRkbzbxI-1" value="&lt;div&gt;-_trackDistance&lt;/div&gt;&lt;div&gt;-_roadColor&lt;br&gt;&lt;/div&gt;" style="text;strokeColor=none;fillColor=none;align=left;verticalAlign=top;spacingLeft=4;spacingRight=4;overflow=hidden;rotatable=0;points=[[0,0.5],[1,0.5]];portConstraint=eastwest;whiteSpace=wrap;html=1;" vertex="1" parent="GMhAEA2OD-C0DRkbzbxI-0">
          <mxGeometry y="26" width="240" height="44" as="geometry" />
        </mxCell>
        <mxCell id="GMhAEA2OD-C0DRkbzbxI-2" value="" style="line;strokeWidth=1;fillColor=none;align=left;verticalAlign=middle;spacingTop=-1;spacingLeft=3;spacingRight=3;rotatable=0;labelPosition=right;points=[];portConstraint=eastwest;strokeColor=inherit;" vertex="1" parent="GMhAEA2OD-C0DRkbzbxI-0">
          <mxGeometry y="70" width="240" height="8" as="geometry" />
        </mxCell>
        <mxCell id="GMhAEA2OD-C0DRkbzbxI-3" value="&lt;div&gt;+LoadEnv()&lt;/div&gt;&lt;div&gt;+ResetEnv()&lt;/div&gt;&lt;div&gt;&lt;br&gt;&lt;/div&gt;" style="text;strokeColor=none;fillColor=none;align=left;verticalAlign=top;spacingLeft=4;spacingRight=4;overflow=hidden;rotatable=0;points=[[0,0.5],[1,0.5]];portConstraint=eastwest;whiteSpace=wrap;html=1;" vertex="1" parent="GMhAEA2OD-C0DRkbzbxI-0">
          <mxGeometry y="78" width="240" height="52" as="geometry" />
        </mxCell>
        <mxCell id="GMhAEA2OD-C0DRkbzbxI-4" value="Car" style="swimlane;fontStyle=1;align=center;verticalAlign=top;childLayout=stackLayout;horizontal=1;startSize=26;horizontalStack=0;resizeParent=1;resizeParentMax=0;resizeLast=0;collapsible=1;marginBottom=0;whiteSpace=wrap;html=1;" vertex="1" parent="WIyWlLk6GJQsqaUBKTNV-1">
          <mxGeometry x="174" y="40" width="160" height="220" as="geometry" />
        </mxCell>
        <mxCell id="GMhAEA2OD-C0DRkbzbxI-5" value="&lt;div&gt;-_carName&lt;/div&gt;&lt;div&gt;-_speed&lt;/div&gt;&lt;div&gt;-_angle&lt;/div&gt;&lt;div&gt;-_maxSpeed&lt;/div&gt;&lt;div&gt;-_maxAngle&lt;br&gt;&lt;/div&gt;" style="text;strokeColor=none;fillColor=none;align=left;verticalAlign=top;spacingLeft=4;spacingRight=4;overflow=hidden;rotatable=0;points=[[0,0.5],[1,0.5]];portConstraint=eastwest;whiteSpace=wrap;html=1;" vertex="1" parent="GMhAEA2OD-C0DRkbzbxI-4">
          <mxGeometry y="26" width="160" height="84" as="geometry" />
        </mxCell>
        <mxCell id="GMhAEA2OD-C0DRkbzbxI-6" value="" style="line;strokeWidth=1;fillColor=none;align=left;verticalAlign=middle;spacingTop=-1;spacingLeft=3;spacingRight=3;rotatable=0;labelPosition=right;points=[];portConstraint=eastwest;strokeColor=inherit;" vertex="1" parent="GMhAEA2OD-C0DRkbzbxI-4">
          <mxGeometry y="110" width="160" height="8" as="geometry" />
        </mxCell>
        <mxCell id="GMhAEA2OD-C0DRkbzbxI-7" value="&lt;div&gt;+spawn()&lt;/div&gt;&lt;div&gt;+moveForeward()&lt;/div&gt;&lt;div&gt;+moveBackward()&lt;/div&gt;&lt;div&gt;+turnLeft()&lt;/div&gt;&lt;div&gt;+turnRight()&lt;/div&gt;&lt;div&gt;+collision90&lt;br&gt;&lt;/div&gt;" style="text;strokeColor=none;fillColor=none;align=left;verticalAlign=top;spacingLeft=4;spacingRight=4;overflow=hidden;rotatable=0;points=[[0,0.5],[1,0.5]];portConstraint=eastwest;whiteSpace=wrap;html=1;" vertex="1" parent="GMhAEA2OD-C0DRkbzbxI-4">
          <mxGeometry y="118" width="160" height="102" as="geometry" />
        </mxCell>
        <mxCell id="GMhAEA2OD-C0DRkbzbxI-12" value="Has" style="edgeStyle=orthogonalEdgeStyle;rounded=0;orthogonalLoop=1;jettySize=auto;html=1;entryX=0.5;entryY=0;entryDx=0;entryDy=0;endArrow=block;endFill=0;" edge="1" parent="WIyWlLk6GJQsqaUBKTNV-1" source="GMhAEA2OD-C0DRkbzbxI-8" target="GMhAEA2OD-C0DRkbzbxI-4">
          <mxGeometry relative="1" as="geometry" />
        </mxCell>
        <mxCell id="GMhAEA2OD-C0DRkbzbxI-13" value="Has" style="edgeStyle=orthogonalEdgeStyle;rounded=0;orthogonalLoop=1;jettySize=auto;html=1;exitX=0.5;exitY=1;exitDx=0;exitDy=0;entryX=0.5;entryY=0;entryDx=0;entryDy=0;endArrow=block;endFill=0;" edge="1" parent="WIyWlLk6GJQsqaUBKTNV-1" source="GMhAEA2OD-C0DRkbzbxI-8" target="GMhAEA2OD-C0DRkbzbxI-0">
          <mxGeometry relative="1" as="geometry" />
        </mxCell>
        <mxCell id="GMhAEA2OD-C0DRkbzbxI-8" value="PrgSpeed" style="swimlane;fontStyle=1;align=center;verticalAlign=top;childLayout=stackLayout;horizontal=1;startSize=26;horizontalStack=0;resizeParent=1;resizeParentMax=0;resizeLast=0;collapsible=1;marginBottom=0;whiteSpace=wrap;html=1;" vertex="1" parent="WIyWlLk6GJQsqaUBKTNV-1">
          <mxGeometry x="334" y="-160" width="150" height="120" as="geometry" />
        </mxCell>
        <mxCell id="GMhAEA2OD-C0DRkbzbxI-9" value="&lt;div&gt;-_score&lt;/div&gt;&lt;div&gt;-_time&lt;br&gt;&lt;/div&gt;" style="text;strokeColor=none;fillColor=none;align=left;verticalAlign=top;spacingLeft=4;spacingRight=4;overflow=hidden;rotatable=0;points=[[0,0.5],[1,0.5]];portConstraint=eastwest;whiteSpace=wrap;html=1;" vertex="1" parent="GMhAEA2OD-C0DRkbzbxI-8">
          <mxGeometry y="26" width="150" height="44" as="geometry" />
        </mxCell>
        <mxCell id="GMhAEA2OD-C0DRkbzbxI-10" value="" style="line;strokeWidth=1;fillColor=none;align=left;verticalAlign=middle;spacingTop=-1;spacingLeft=3;spacingRight=3;rotatable=0;labelPosition=right;points=[];portConstraint=eastwest;strokeColor=inherit;" vertex="1" parent="GMhAEA2OD-C0DRkbzbxI-8">
          <mxGeometry y="70" width="150" height="8" as="geometry" />
        </mxCell>
        <mxCell id="GMhAEA2OD-C0DRkbzbxI-11" value="&lt;div&gt;+result()&lt;/div&gt;&lt;div&gt;+load()&lt;br&gt;&lt;/div&gt;" style="text;strokeColor=none;fillColor=none;align=left;verticalAlign=top;spacingLeft=4;spacingRight=4;overflow=hidden;rotatable=0;points=[[0,0.5],[1,0.5]];portConstraint=eastwest;whiteSpace=wrap;html=1;" vertex="1" parent="GMhAEA2OD-C0DRkbzbxI-8">
          <mxGeometry y="78" width="150" height="42" as="geometry" />
        </mxCell>
      </root>
    </mxGraphModel>
  </diagram>
</mxfile>
